<?xml version="1.0" standalone="no"?>
<!DOCTYPE svg PUBLIC "-//W3C//DTD SVG 20010904//EN"
 "http://www.w3.org/TR/2001/REC-SVG-20010904/DTD/svg10.dtd">
<svg version="1.0" xmlns="http://www.w3.org/2000/svg"
 width="152.000000pt" height="146.000000pt" viewBox="0 0 152.000000 146.000000"
 preserveAspectRatio="xMidYMid meet">

<g transform="translate(0.000000,146.000000) scale(0.100000,-0.100000)"
fill="#1a45aa" stroke="none">
<path d="M640 1421 c-88 -21 -140 -40 -195 -71 -233 -130 -369 -361 -368 -625
1 -208 75 -380 225 -521 355 -332 947 -217 1144 222 42 93 64 190 64 285 l0
86 -57 21 c-32 11 -70 24 -84 27 l-26 6 9 -58 c34 -239 -109 -485 -341 -585
-74 -32 -80 -33 -216 -33 -116 0 -149 3 -190 20 -90 35 -139 68 -213 141 -110
109 -162 236 -162 396 0 237 168 457 403 530 58 17 86 20 185 15 81 -3 131
-10 162 -23 53 -22 145 -75 180 -105 l25 -21 -43 -38 -42 -38 42 -16 c24 -8
106 -38 182 -66 77 -27 140 -49 142 -47 2 1 -1 21 -6 42 -5 22 -16 83 -25 135
-9 52 -21 119 -26 148 l-10 52 -43 -35 c-43 -35 -61 -42 -68 -27 -8 21 -120
98 -185 128 -149 70 -315 90 -463 55z"/>
<path d="M761 1191 c-11 -7 -17 -41 -22 -118 -4 -59 -11 -156 -15 -215 l-7
-108 -94 -60 c-83 -54 -93 -64 -93 -91 0 -22 7 -32 24 -41 22 -9 39 -4 129 41
58 28 114 51 125 51 11 0 30 12 42 28 20 24 22 34 16 107 -4 44 -11 150 -16
235 -8 128 -13 157 -27 168 -20 14 -42 15 -62 3z"/>
<path d="M542 1128 c-15 -15 -15 -51 0 -66 21 -21 68 -15 77 11 9 24 4 48 -13
59 -17 12 -51 9 -64 -4z"/>
<path d="M972 1128 c-15 -15 -15 -51 0 -66 19 -19 66 -15 78 7 14 27 13 37 -6
55 -18 19 -55 21 -72 4z"/>
<path d="M385 970 c-35 -39 3 -91 55 -75 28 9 37 51 15 75 -10 11 -26 20 -35
20 -9 0 -25 -9 -35 -20z"/>
<path d="M1137 972 c-32 -35 -15 -82 29 -82 21 0 54 33 54 52 0 13 -39 48 -53
48 -8 0 -21 -8 -30 -18z"/>
<path d="M319 749 c-17 -33 3 -69 39 -69 33 0 52 16 52 45 0 29 -19 45 -52 45
-18 0 -31 -7 -39 -21z"/>
<path d="M1184 746 c-11 -45 -2 -61 38 -64 33 -3 38 0 44 24 9 36 -6 58 -44
62 -26 3 -32 -1 -38 -22z"/>
<path d="M387 542 c-22 -24 -21 -45 1 -65 24 -22 45 -21 65 1 22 24 21 45 -1
65 -24 22 -45 21 -65 -1z"/>
<path d="M1138 549 c-37 -21 -11 -89 32 -89 11 0 27 11 36 25 15 23 15 27 0
50 -17 26 -40 31 -68 14z"/>
<path d="M542 388 c-34 -34 14 -102 56 -79 28 15 35 40 17 67 -17 26 -53 32
-73 12z"/>
<path d="M972 388 c-35 -35 14 -102 57 -79 45 25 33 91 -17 91 -16 0 -33 -5
-40 -12z"/>
<path d="M751 322 c-23 -43 27 -91 68 -65 20 13 26 50 11 69 -18 20 -67 18
-79 -4z"/>
</g>
</svg>
