<svg version="1.0" xmlns="http://www.w3.org/2000/svg"
 width="152.000000pt" height="146.000000pt" viewBox="0 0 152.000000 146.000000"
 preserveAspectRatio="xMidYMid meet">
    <defs class="defs"></defs>
    <path fill="#020202"
        d="M197.423,104.416c0.679-3.031,0.234-6.448-1.505-9.521c-2.381-4.201-6.6-6.811-11.016-6.811
      c-1.063,0-2.104,0.177-3.102,0.484c-8.191-5.088-17.916-8.789-26.24-11.346c1.625-12.777,2.399-28.21,1.805-46.839l-0.057-1.764
      l-1.135-1.354c-12.003-14.362-27.057-23.023-44.861-25.878c-8.254-1.62-17.393-1.972-26.042-0.241
      c-18.94,2.431-32.921,9.47-33.625,9.831l-1.188,0.607l-0.74,1.111C38.946,28.854,33.555,50.925,32.683,71.754l-1.445,1.02
      c-1.511,1.064-8.796,6.318-15.95,13.438c-1.251-0.448-2.564-0.688-3.897-0.688c-1.815,0-3.592,0.463-5.145,1.343
      c-2.717,1.539-4.566,4.174-5.207,7.42c-0.585,2.961-0.076,6.108,1.415,8.911c-1.35,2.867-2.234,5.762-2.416,8.599
      c-0.33,5.131,1.552,9.728,5.441,13.293l0.283,0.261l0.596,0.387c2.236,1.305,4.801,1.967,7.619,1.967
      c9.252,0,18.88-7.51,19.286-7.83l2.08-1.643l-0.703-13.334l0.668-0.668c0.796,3.498,1.751,6.789,2.875,9.795
      c6.117,21.809,41.053,26.395,69.346,26.395c6.621,0,11.229-0.277,12.158-0.338c4.877-0.076,10.472-3.014,15.379-8.084
      c4.418-4.561,10.19-12.86,14.783-27.512c4.586,3.4,9.127,6.275,12.519,8.297l0.575,7.504l0.716,1.096
      c0.293,0.447,7.274,10.963,18.687,10.963c3.989,0,9.61-1.322,13.383-5.002C201.814,121.732,200.463,111.003,197.423,104.416z
       M33.162,94.833l-4.268,4.271l0.609,11.584c0,0-11.584,9.146-18.9,4.879c-2.311-2.118-3.326-4.556-3.403-7.159
      c1.946,1.247,4.167,1.944,6.441,1.944c1.812,0,3.591-0.468,5.143-1.347c5.453-3.086,7.078-10.565,3.623-16.67
      c-0.942-1.661-2.174-3.067-3.589-4.169c6.913-6.992,14.344-12.234,14.344-12.234V94.833z M48.001,111.113l-0.156-0.484
      c-8.623-22.785-6.701-65.405,9.633-91.091c0.397-0.182,0.894-0.403,1.476-0.654c-6.416,12.885-21.823,49.882-6.033,81.956
      l12.938,24.174C55.835,121.742,49.586,117.018,48.001,111.113z M71.184,126.523l-12.607-23.322
      c21.617,8.218,42.649,7.113,49.546,6.443l-14.105,20.123C85.317,129.217,77.651,128.119,71.184,126.523z M127.714,124.872
      c-3.801,3.924-6.955,4.969-8.223,4.969l-0.359,0.015c-0.047,0.004-4.719,0.326-11.604,0.326c-3.137,0-6.174-0.063-9.104-0.182
      l18.285-25.227l-0.035-0.024c6.106-7.603,15.371-27.739,21.296-80.972c3.262,2.549,6.344,5.445,9.219,8.726
      c0.459,16.686-0.227,30.522-1.603,41.979c-4.961-1.207-8.349-1.803-8.849-1.89l-4.561-0.782l-1.236,4.459
      c-1.924,6.924,3.268,14.472,10.322,21.109C136.873,113.428,131.135,121.34,127.714,124.872z M190.809,117.868
      c-11.968,9.116-20.517-3.99-20.517-3.99l-0.569-7.408c0-0.002-29.063-16.526-26.214-26.782c0,0,19.593,3.362,34.007,11.469
      c-1.488,1.501-2.523,3.443-2.967,5.691c-0.607,3.079-0.045,6.364,1.59,9.247c2.379,4.204,6.6,6.813,11.014,6.813
      c1.814,0,3.594-0.465,5.143-1.344c0.069-0.039,0.131-0.086,0.198-0.127C192.355,113.469,191.822,115.609,190.809,117.868z"
        class="color c1"></path>
    <path fill="#FFFFFF" d="M98.826,71.494c0-6.642,2.764-11.794,5.141-11.794s5.141,5.152,5.141,11.794
      c0,6.643-2.764,11.795-5.141,11.795S98.826,78.137,98.826,71.494z M108.075,109.146c-2.139,0.208-5.618,0.456-10.052,0.456
      c-9.672,0-24.335-1.191-39.269-6.869l-1.257-0.478l13.352,24.7l0.215,0.053c6.535,1.612,14.247,2.709,22.922,3.258l0.28,0.018
      l14.89-21.242L108.075,109.146z M131.421,76.403l1.116-4.023l4.113,0.705c0.886,0.154,4.137,0.745,8.816,1.883l0.548,0.134
      l0.066-0.56c1.492-12.42,2.032-26.568,1.606-42.053l-0.005-0.18l-0.119-0.136c-2.827-3.226-5.952-6.184-9.287-8.791l-0.705-0.552
      l-0.1,0.891c-5.802,52.132-14.725,72.667-21.188,80.714l-0.301,0.442l0.021,0.016l-18.533,25.568l0.932,0.038
      c2.972,0.12,6.042,0.182,9.125,0.182c6.899,0,11.606-0.324,11.625-0.326l0.339-0.015c1.671,0,4.921-1.341,8.582-5.121
      c3.171-3.274,9.164-11.229,13.671-27.709l0.079-0.29l-0.219-0.206C133.235,89.141,129.809,82.205,131.421,76.403z M59.402,19.106
      l0.609-1.223l-1.254,0.541c-0.586,0.252-1.087,0.476-1.487,0.659l-0.134,0.062l-0.079,0.125
      c-16.374,25.749-18.243,68.907-9.687,91.512l0.149,0.461c1.6,5.959,7.888,10.885,18.186,14.246l1.184,0.386L53.37,100.619
      C37.864,69.123,52.422,33.123,59.402,19.106z M55.866,72.518c0,6.625,2.836,11.764,5.277,11.764s5.277-5.139,5.277-11.764
      c-0.001-6.623-2.837-11.76-5.277-11.76C58.703,60.758,55.866,65.895,55.866,72.518z M192.048,111.13
      c-1.474,0.836-3.167,1.278-4.896,1.278c-4.235,0-8.289-2.514-10.579-6.561c-1.574-2.775-2.119-5.938-1.534-8.903
      c0.416-2.107,1.395-3.987,2.832-5.437l0.462-0.466l-0.572-0.321c-14.323-8.056-33.971-11.492-34.167-11.526l-0.445-0.076
      l-0.121,0.436c-2.774,9.985,22.311,24.956,26.217,27.218l0.56,7.272l0.069,0.107c0.198,0.304,4.941,7.441,12.442,7.441
      c2.938,0,5.897-1.119,8.796-3.327l0.102-0.077l0.052-0.115c1-2.229,1.581-4.45,1.728-6.602l0.065-0.963L192.048,111.13z
       M18.462,87.814l-0.396,0.4l0.444,0.346c1.403,1.092,2.567,2.445,3.461,4.021c3.319,5.866,1.779,13.038-3.435,15.988
      c-3.314,1.877-7.625,1.623-11.067-0.583l-0.798-0.511l0.028,0.946c0.085,2.896,1.285,5.423,3.565,7.513l0.086,0.063
      c1.368,0.798,2.968,1.203,4.754,1.203c6.876,0,14.391-5.871,14.708-6.121l0.203-0.16l-0.61-11.62l4.257-4.26V74.967l-0.788,0.557
      C32.799,75.576,25.327,80.871,18.462,87.814z" class="color c2"></path>
    <path fill="#6de1ff" d="M181.367,103.134c-0.924-1.633-1.252-3.45-0.922-5.118c0.296-1.506,1.104-2.695,2.275-3.359
      c0.658-0.374,1.393-0.563,2.182-0.563c2.221,0,4.492,1.478,5.785,3.765c1.824,3.218,1.217,7.022-1.354,8.479
      c-0.66,0.374-1.393,0.563-2.182,0.563C184.934,106.9,182.662,105.421,181.367,103.134z M13.641,104.339
      c0.789,0,1.523-0.188,2.182-0.563c2.57-1.455,3.178-5.26,1.354-8.481c-1.297-2.285-3.567-3.761-5.786-3.761
      c-0.789,0-1.523,0.189-2.184,0.564c-1.168,0.659-1.977,1.854-2.275,3.354c-0.328,1.67-0.002,3.489,0.924,5.123
      C9.151,102.859,11.422,104.339,13.641,104.339z M61.143,89.919c-6.225,0-10.92-7.479-10.92-17.401c0-9.918,4.695-17.4,10.92-17.4
      s10.918,7.482,10.918,17.4C72.061,82.439,67.367,89.919,61.143,89.919z M65.92,72.518c-0.001-6.768-2.876-11.26-4.777-11.26
      c-1.902,0-4.777,4.492-4.777,11.26c0,6.771,2.875,11.264,4.777,11.264S65.92,79.289,65.92,72.518z M93.252,71.494
      c0-9.901,4.605-17.366,10.715-17.366c6.11,0,10.715,7.465,10.715,17.366c0,9.902-4.605,17.369-10.715,17.369
      C97.858,88.863,93.252,81.396,93.252,71.494z M99.326,71.494c0,6.791,2.793,11.295,4.641,11.295s4.641-4.504,4.641-11.295
      c0-6.788-2.793-11.294-4.641-11.294S99.326,64.706,99.326,71.494z" class="color c3"></path>
</svg>